<?xml version="1.0" encoding="UTF-8"?>
<svg version="1.1" xmlns="http://www.w3.org/2000/svg" style="display: block;" viewBox="0 0 512 512">
<path transform="translate(0,0)" fill="rgb(3,4,94)" d="M 0 0 L 0 512 L 512 512 L 512 0 L 0 0 z"/>
<path transform="translate(0,0)" fill="rgb(184,251,60)" d="M 156.283 291.638 L 156.292 296.405 L 149.765 296.413 L 149.772 290.102 L 147.756 290.1 C 145.874 290.092 143.959 289.679 142.144 289.202 C 129.986 286.002 121.185 274.579 120.494 262.152 L 120.479 239.349 C 121.111 226.453 132.22 215.887 144.958 215.19 L 158.681 215.165 C 161.65 215.163 164.223 215.405 167.09 216.268 C 177.071 219.274 184.756 228.453 185.531 238.921 C 185.661 240.685 185.58 242.502 185.58 244.272 L 185.568 261.351 C 185.562 261.78 185.571 262.241 185.504 262.665 L 185.279 264.501 C 183.36 277.513 173.177 288.707 159.787 290.042 C 158.636 290.157 157.445 290.102 156.289 290.102 L 156.283 291.638 z M 145.921 221.438 C 136.747 221.726 129.216 228.003 127.148 236.874 C 126.9 237.941 126.745 239.044 126.735 240.138 L 126.728 256.739 C 126.727 258.405 126.663 260.099 126.763 261.761 C 127.386 272.193 134.734 281.6 145.248 283.527 C 147.746 283.985 150.311 283.841 152.841 283.84 L 159.97 283.642 C 171.717 281.926 179.333 271.218 179.338 259.734 L 179.339 242.387 C 179.339 241.263 179.429 240.038 179.267 238.927 L 179.232 238.769 C 179.17 238.507 179.151 238.226 179.104 237.96 C 177.526 229.076 170.275 222.201 161.171 221.475 C 160.371 221.411 159.553 221.438 158.751 221.438 L 145.921 221.438 z"/>
<path transform="translate(0,0)" fill="rgb(184,251,60)" d="M 129.193 248.991 L 129.194 242.682 L 135.457 242.685 C 135.402 243.221 135.438 243.794 135.436 244.334 L 135.429 257.836 C 135.428 258.824 135.382 259.845 135.485 260.827 C 135.878 264.572 137.639 268.247 140.295 270.902 C 146.892 277.498 158.878 277.586 165.482 270.946 C 169.427 266.979 170.521 262.91 170.526 257.595 L 170.519 242.684 L 176.198 242.68 C 176.445 242.66 176.597 242.645 176.757 242.615 L 176.744 257.8 C 176.743 258.57 176.775 259.365 176.721 260.133 C 175.945 271.162 167.436 281.169 156.109 281.805 L 150.262 281.82 C 149.362 281.81 148.521 281.694 147.64 281.526 L 145.633 281.05 C 136.083 278.351 129.206 269.019 129.196 259.136 L 129.193 248.991 z"/>
<path transform="translate(0,0)" fill="rgb(184,251,60)" d="M 205.016 277.57 L 205.016 234 L 221.852 234 L 221.852 238.357 L 211.094 238.357 L 211.094 252.88 L 219.432 252.88 L 219.432 257.183 L 211.094 257.183 L 211.094 277.57 L 205.016 277.57 z M 229.221 278 C 228.002 278 226.926 277.65 225.994 276.951 C 225.062 276.252 224.326 275.355 223.789 274.262 C 223.251 273.168 222.982 272.011 222.982 270.792 C 222.982 268.856 223.304 267.224 223.95 265.897 C 224.595 264.57 225.483 263.45 226.612 262.535 C 227.742 261.621 229.051 260.823 230.539 260.142 C 232.027 259.46 233.596 258.797 235.246 258.152 L 235.246 255.946 C 235.246 254.691 235.174 253.651 235.031 252.826 C 234.887 252.002 234.591 251.383 234.143 250.971 C 233.695 250.558 233.022 250.352 232.126 250.352 C 231.337 250.352 230.7 250.531 230.216 250.89 C 229.732 251.249 229.383 251.76 229.167 252.423 C 228.952 253.086 228.845 253.866 228.845 254.763 L 228.845 256.323 L 223.143 256.108 C 223.215 252.665 224.004 250.128 225.51 248.496 C 227.016 246.865 229.347 246.049 232.502 246.049 C 235.586 246.049 237.774 246.892 239.065 248.577 C 240.356 250.262 241.001 252.701 241.001 255.892 L 241.001 270.093 C 241.001 271.061 241.028 271.993 241.082 272.89 C 241.136 273.786 241.207 274.62 241.297 275.391 C 241.387 276.162 241.467 276.888 241.539 277.57 L 236.268 277.57 C 236.16 276.996 236.026 276.27 235.864 275.391 C 235.703 274.513 235.586 273.715 235.515 272.998 C 235.156 274.217 234.466 275.355 233.444 276.413 C 232.422 277.471 231.014 278 229.221 278 z M 231.48 273.051 C 232.054 273.051 232.592 272.89 233.094 272.567 C 233.596 272.244 234.044 271.877 234.439 271.465 C 234.833 271.052 235.102 270.72 235.246 270.469 L 235.246 261.648 C 234.349 262.15 233.507 262.652 232.718 263.154 C 231.929 263.656 231.238 264.185 230.647 264.741 C 230.055 265.297 229.589 265.924 229.248 266.623 C 228.908 267.323 228.737 268.121 228.737 269.017 C 228.737 270.272 228.97 271.258 229.436 271.976 C 229.903 272.693 230.584 273.051 231.48 273.051 z M 257.676 278 C 256.564 278 255.569 277.722 254.691 277.166 C 253.812 276.61 253.05 275.992 252.405 275.311 L 252.405 277.57 L 246.649 277.57 L 246.649 234 L 252.405 234 L 252.405 248.954 C 253.086 248.165 253.902 247.483 254.852 246.91 C 255.802 246.336 256.941 246.049 258.268 246.049 C 259.881 246.049 261.163 246.47 262.114 247.313 C 263.064 248.156 263.772 249.214 264.238 250.487 C 264.705 251.76 265.009 253.051 265.153 254.359 C 265.296 255.668 265.368 256.789 265.368 257.721 L 265.368 265.252 C 265.368 267.439 265.153 269.51 264.722 271.465 C 264.292 273.419 263.521 274.997 262.41 276.198 C 261.298 277.399 259.72 278 257.676 278 z M 256.493 273.482 C 257.497 273.482 258.214 273.114 258.644 272.379 C 259.075 271.644 259.344 270.649 259.451 269.394 C 259.559 268.139 259.612 266.758 259.612 265.252 L 259.612 257.721 C 259.612 256.43 259.541 255.238 259.397 254.144 C 259.254 253.051 258.949 252.181 258.483 251.535 C 258.017 250.89 257.282 250.567 256.278 250.567 C 255.524 250.567 254.816 250.729 254.153 251.051 C 253.489 251.374 252.907 251.733 252.405 252.127 L 252.405 272.083 C 252.907 272.478 253.507 272.809 254.207 273.078 C 254.906 273.347 255.668 273.482 256.493 273.482 z M 270.962 277.57 L 270.962 246.479 L 276.718 246.479 L 276.718 277.57 L 270.962 277.57 z M 270.962 241.853 L 270.962 235.829 L 276.718 235.829 L 276.718 241.853 L 270.962 241.853 z M 287.583 278 C 286.364 278 285.288 277.65 284.356 276.951 C 283.424 276.252 282.688 275.355 282.15 274.262 C 281.612 273.168 281.344 272.011 281.344 270.792 C 281.344 268.856 281.666 267.224 282.312 265.897 C 282.957 264.57 283.845 263.45 284.974 262.535 C 286.104 261.621 287.413 260.823 288.901 260.142 C 290.389 259.46 291.958 258.797 293.608 258.152 L 293.608 255.946 C 293.608 254.691 293.536 253.651 293.392 252.826 C 293.249 252.002 292.953 251.383 292.505 250.971 C 292.057 250.558 291.384 250.352 290.488 250.352 C 289.699 250.352 289.062 250.531 288.578 250.89 C 288.094 251.249 287.745 251.76 287.529 252.423 C 287.314 253.086 287.207 253.866 287.207 254.763 L 287.207 256.323 L 281.505 256.108 C 281.576 252.665 282.366 250.128 283.872 248.496 C 285.378 246.865 287.708 246.049 290.864 246.049 C 293.948 246.049 296.136 246.892 297.427 248.577 C 298.718 250.262 299.363 252.701 299.363 255.892 L 299.363 270.093 C 299.363 271.061 299.39 271.993 299.444 272.89 C 299.498 273.786 299.569 274.62 299.659 275.391 C 299.749 276.162 299.829 276.888 299.901 277.57 L 294.63 277.57 C 294.522 276.996 294.388 276.27 294.226 275.391 C 294.065 274.513 293.948 273.715 293.877 272.998 C 293.518 274.217 292.828 275.355 291.806 276.413 C 290.784 277.471 289.376 278 287.583 278 z M 289.842 273.051 C 290.416 273.051 290.954 272.89 291.456 272.567 C 291.958 272.244 292.406 271.877 292.801 271.465 C 293.195 271.052 293.464 270.72 293.608 270.469 L 293.608 261.648 C 292.711 262.15 291.869 262.652 291.079 263.154 C 290.29 263.656 289.6 264.185 289.009 264.741 C 288.417 265.297 287.951 265.924 287.61 266.623 C 287.27 267.323 287.099 268.121 287.099 269.017 C 287.099 270.272 287.332 271.258 287.798 271.976 C 288.265 272.693 288.946 273.051 289.842 273.051 z M 304.903 277.57 L 304.903 246.479 L 310.659 246.479 L 310.659 249.545 C 311.699 248.577 312.847 247.752 314.101 247.071 C 315.356 246.39 316.737 246.049 318.243 246.049 C 319.498 246.049 320.458 246.372 321.121 247.017 C 321.784 247.663 322.251 248.469 322.52 249.438 C 322.789 250.406 322.923 251.392 322.923 252.396 L 322.923 277.57 L 317.167 277.57 L 317.167 254.064 C 317.167 252.952 317.006 252.091 316.683 251.482 C 316.361 250.872 315.697 250.567 314.693 250.567 C 314.048 250.567 313.375 250.755 312.676 251.132 C 311.977 251.509 311.304 251.966 310.659 252.504 L 310.659 277.57 L 304.903 277.57 z M 329.001 277.57 L 329.001 234 L 339.006 234 C 340.979 234 342.691 234.215 344.143 234.645 C 345.595 235.076 346.806 235.739 347.774 236.636 C 348.742 237.532 349.459 238.671 349.925 240.051 C 350.392 241.432 350.625 243.055 350.625 244.919 C 350.625 246.712 350.4 248.263 349.952 249.572 C 349.504 250.881 348.823 251.912 347.908 252.665 C 346.994 253.418 345.82 253.902 344.385 254.117 C 346.142 254.512 347.559 255.184 348.634 256.134 C 349.71 257.085 350.508 258.304 351.028 259.792 C 351.548 261.28 351.808 263.064 351.808 265.144 C 351.808 267.009 351.593 268.712 351.163 270.254 C 350.732 271.796 350.06 273.105 349.145 274.181 C 348.231 275.257 347.065 276.09 345.649 276.682 C 344.233 277.274 342.556 277.57 340.62 277.57 L 329.001 277.57 z M 335.079 273.213 L 339.167 273.213 C 341.893 273.213 343.713 272.576 344.627 271.303 C 345.542 270.03 345.999 267.977 345.999 265.144 C 345.999 263.315 345.757 261.782 345.273 260.545 C 344.789 259.308 344.018 258.376 342.96 257.748 C 341.902 257.121 340.476 256.807 338.683 256.807 L 335.079 256.807 L 335.079 273.213 z M 335.079 252.181 L 338.683 252.181 C 340.405 252.181 341.749 251.939 342.718 251.455 C 343.686 250.971 344.367 250.191 344.762 249.115 C 345.156 248.039 345.353 246.641 345.353 244.919 C 345.353 242.911 345.048 241.459 344.439 240.562 C 343.829 239.666 342.879 239.101 341.588 238.868 C 340.297 238.635 338.612 238.518 336.532 238.518 L 335.079 238.518 L 335.079 252.181 z M 365.309 278 C 362.871 278 360.988 277.525 359.661 276.575 C 358.334 275.624 357.411 274.226 356.891 272.379 C 356.371 270.532 356.111 268.264 356.111 265.575 L 356.111 258.474 C 356.111 255.713 356.38 253.418 356.918 251.589 C 357.456 249.76 358.397 248.38 359.742 247.447 C 361.087 246.515 362.943 246.049 365.309 246.049 C 367.927 246.049 369.855 246.587 371.092 247.663 C 372.329 248.738 373.145 250.289 373.539 252.315 C 373.933 254.341 374.131 256.771 374.131 259.604 L 374.131 262.132 L 361.867 262.132 L 361.867 268.372 C 361.867 269.627 361.983 270.649 362.216 271.438 C 362.449 272.227 362.826 272.809 363.346 273.186 C 363.866 273.562 364.538 273.751 365.363 273.751 C 366.224 273.751 366.878 273.544 367.326 273.132 C 367.774 272.72 368.079 272.128 368.241 271.357 C 368.402 270.586 368.483 269.681 368.483 268.641 L 368.483 266.758 L 374.077 266.758 L 374.077 267.941 C 374.077 271.061 373.414 273.518 372.087 275.311 C 370.76 277.103 368.501 278 365.309 278 z M 361.867 259.012 L 368.483 259.012 L 368.483 256.215 C 368.483 254.924 368.411 253.839 368.268 252.961 C 368.124 252.082 367.828 251.419 367.38 250.971 C 366.932 250.522 366.224 250.298 365.255 250.298 C 364.323 250.298 363.615 250.513 363.131 250.944 C 362.647 251.374 362.315 252.1 362.136 253.122 C 361.957 254.144 361.867 255.552 361.867 257.345 L 361.867 259.012 z M 379.886 277.57 L 379.886 234 L 385.642 234 L 385.642 277.57 L 379.886 277.57 z M 399.95 278 C 398.336 278 397.036 277.695 396.05 277.086 C 395.064 276.476 394.347 275.615 393.899 274.504 C 393.45 273.392 393.226 272.083 393.226 270.577 L 393.226 250.298 L 389.945 250.298 L 389.945 246.479 L 393.226 246.479 L 393.226 237.389 L 398.982 237.389 L 398.982 246.479 L 403.984 246.479 L 403.984 250.298 L 398.982 250.298 L 398.982 270.2 C 398.982 271.42 399.179 272.289 399.573 272.809 C 399.968 273.329 400.721 273.589 401.833 273.589 C 402.119 273.589 402.451 273.571 402.828 273.535 C 403.204 273.5 403.572 273.464 403.93 273.428 L 403.93 277.677 C 403.213 277.785 402.55 277.866 401.94 277.919 C 401.331 277.973 400.667 278 399.95 278 z"/>
</svg>
